<?xml version="1.0" encoding="UTF-8"?>
<svg xmlns="http://www.w3.org/2000/svg" viewBox="0 0 390.67 374.67">
  <defs>
    <style>
      .cls-1 {
        stroke: #078341;
      }

      .cls-1, .cls-2, .cls-3 {
        stroke-miterlimit: 10;
      }

      .cls-1, .cls-4 {
        fill: #078341;
      }

      .cls-2, .cls-3 {
        fill: #fdd6bf;
        stroke: #fdd6bf;
      }

      .cls-3 {
        stroke-width: .75px;
      }

      .cls-5 {
        fill: #fff;
      }
    </style>
  </defs>
  <g id="Layer_1" data-name="Layer 1">
    <path class="cls-4" d="M195.7,298.19l-103.07-.59-10.62-.06c-1.74-.03-3.5.06-5.22-.24-3.45-.54-6.71-2.18-9.18-4.65-1.25-1.21-2.29-2.64-3.11-4.18-.83-1.53-1.44-3.19-1.76-4.9-.68-3.42-.23-7.05,1.22-10.22.76-1.63,1.72-3.14,2.59-4.71l6.34-11.12,13.13-23.03,12.42-21.8,16.96,9.66-17.97-65.56-65.57,17.97,16.96,9.66-12.42,21.8-13.13,23.03-6.79,11.91c-1.74,3.06-3.52,6.11-5.14,9.21-.43.77-.82,1.55-1.19,2.33-.38.78-.75,1.57-1.09,2.36-.68,1.59-1.4,3.16-1.95,4.79-2.3,6.28-3.69,12.85-4.14,19.46-.46,6.61.12,13.25,1.52,19.68,1.4,6.44,3.74,12.65,6.86,18.43,3.12,5.79,7.03,11.14,11.64,15.84,4.6,4.7,9.83,8.82,15.59,12.08,5.76,3.25,11.99,5.7,18.49,7.23,1.61.43,3.27.67,4.92.98,1.65.28,3.32.44,4.99.64,1.68.16,3.36.29,5.07.32,1.7.05,3.41.12,5.12.11l15.14.09,103.07.59.32-57.11Z"/>
    <path class="cls-4" d="M268.85,170.92l38.64,67.81,17.87,31.37c.65,1.15,1.35,2.28,1.86,3.49.53,1.21.92,2.48,1.16,3.78.46,2.6.31,5.31-.44,7.84-1.49,5.07-5.4,9.39-10.38,11.22-1.24.46-2.53.78-3.84.95-1.31.19-2.64.14-3.95.16l-16.22.09-50.11.28-.11-19.52-47.8,48.34,48.34,47.8-.11-19.52,50.11-.28,22.8-.15,3.87-.12c1.28-.07,2.56-.16,3.82-.3l3.78-.45c1.25-.2,2.5-.44,3.74-.67,4.96-1.02,9.78-2.55,14.38-4.57,18.41-8.09,32.73-24.3,38.67-43.34,3-9.5,4.02-19.65,2.81-29.63-.62-4.99-1.78-9.91-3.45-14.69-.8-2.4-1.83-4.73-2.87-7.05-1.06-2.32-2.34-4.58-3.55-6.85l-20.77-36.45-38.64-67.81-49.62,28.27Z"/>
    <path class="cls-4" d="M122.06,171.2l39.41-67.37,18.23-31.16c.67-1.13,1.3-2.3,2.09-3.36.78-1.06,1.68-2.04,2.69-2.9,2.02-1.7,4.44-2.92,7.01-3.53,5.13-1.25,10.84-.01,14.91,3.38,1.02.84,1.94,1.8,2.74,2.85.82,1.04,1.44,2.21,2.11,3.35l8.19,14,25.3,43.26-16.85,9.85,65.76,17.22,17.23-65.77-16.85,9.86-25.3-43.26-11.53-19.67-2.04-3.29c-.7-1.07-1.42-2.13-2.17-3.16l-2.28-3.05c-.8-.99-1.63-1.94-2.45-2.9-3.36-3.78-7.1-7.19-11.15-10.16C220.9,3.48,199.71-.82,180.25,3.56c-9.73,2.15-19.03,6.34-27.07,12.38-4.01,3.03-7.69,6.5-11,10.34-1.68,1.9-3.18,3.95-4.67,6.01-1.48,2.07-2.79,4.31-4.16,6.5l-21.18,36.21-39.41,67.37,49.3,28.84Z"/>
  </g>
  <g id="Layer_3" data-name="Layer 3">
    <path class="cls-1" d="M249.3,271.76c.17-.09.33-.18.51-.26,3.43-1.45,5.94-1.5,9.27-3.18.89-.8,2.45-3.49,2.85-5.03,2.64-10.3-.65-14.61-3.43-19.48-3.6-6.3-15.05-24.51-15.05-24.51,0,0,10.46-3.8,13.99-18.45,3.37-13.99-8.79-26.84-8.79-26.84,0,0,13.52-19.45,4.66-23.71-8.85-4.26-19.05,14.75-19.05,14.75l-5.59-2.1s7.46-20.05-3.46-21.31c-9.11-1.06-16.19,20.25-16.19,20.25,0,0-19.85,8.06-24.05,22.71-4.86,16.95,8.11,29.96,8.11,29.96,0,0-2.56.97-6.09,2.35-1.06.41-3.72,1.19-5.67,2.7-3.12,2.42-3.83,6.57-3.26,9.27.66,3.14,2.67,5.23,4.03,6.1,3.15,2.02,9.89,2.88,9.89,2.88,0,0-.77,10.07,1.58,26.88,1.57,11.26,8.13,16.87,8.85,17.46.19-.02.39-.03.6-.02,5.16.37,9.8-.07,14.93-.1,1.62-.51,4.46-2.08,5.83-3.71,2.9-3.43,4.02-13.03,4.02-13.03l2.13-1.33c11.46,9.59,19.32,7.53,19.32,7.53l.05.23Z"/>
  </g>
  <g id="Layer_5" data-name="Layer 5">
    <path class="cls-2" d="M214.99,178.22c-.2.04-14.32-10.71-20.47,4.89-5.17,13.11,3.28,25.86,16.4,27.99,13.12,2.13,24.18-2.6,28.24-13.72s-4.52-22.89-24.17-19.16Z"/>
    <path class="cls-2" d="M237.96,164.94s6.23-12.66,12.12-10.15-3.34,14.92-3.34,14.92l-8.77-4.77Z"/>
    <path class="cls-2" d="M213.6,159.84s4.99-14.82,10.91-14.13c5.92.68.93,14.53.93,14.53l-11.84-.4Z"/>
    <path class="cls-3" d="M183.75,221.54s.28-2.39-1.15-1.66c-.77.39-1.15,1.79-1.15,1.79,0,0-2.91-1.54-3.45-.34s1.17,1.95,1.17,1.95c0,0-.93.15-1.17.95-.28.94.85,1.47.85,1.47,0,0-.39.51-.32,1.08.06.49,2.35,1.11,2.35,1.11l2.86-6.34Z"/>
    <path class="cls-3" d="M222.35,232.72s-3.33-.2-3.33,2,2.29,1.15,2.29,1.15c0,0-1.29-.02-1.02,1.04s2.46,1.27,4.13.53-3.66.4-2.33,1.27,3.59-.33,3.59-.33l-3.33-5.66Z"/>
    <path class="cls-2" d="M248.71,271.57l.58,3.27,2.75-2.18,1.6,1.18,2.66-2.64,2.75-.25.04-2.1c-6.14-.31-10.37,2.72-10.37,2.72Z"/>
    <path class="cls-2" d="M203.06,282.5l-.78,1.62,3.89-.19.43,1.28,3.5-1.01,1.67,1.15,5.14-2.83s-6.73-1.9-13.86-.03Z"/>
  </g>
  <g id="Layer_6" data-name="Layer 6">
    <path class="cls-1" d="M118.89,225.26h45.16l-6.99,57.36c-.19,1.56-1.52,2.74-3.09,2.74h-24.36c-1.56,0-2.88-1.16-3.09-2.7l-7.63-57.39Z"/>
    <polygon class="cls-1" points="137 215.67 145.26 214.07 146.33 219 138.07 220.6 137 215.67"/>
    <polygon class="cls-1" points="137.67 205.41 141.47 200.75 148.33 205.41 144.73 209.81 137.67 205.41"/>
    <path class="cls-5" d="M141.48,257.11l-4.83-.03c-.35-.01-.7.02-1.05-.03-.34-.08-.63-.36-.73-.69-.06-.21-.05-.43.02-.63.08-.2.2-.38.31-.57l.58-1.01,1.41.81-1.5-5.46-5.46,1.5,1.41.81-1.4,2.49c-.4.75-.64,1.46-.74,2.16-.1.72-.03,1.49.23,2.2.41,1.17,1.33,2.15,2.41,2.66.55.25,1.09.39,1.75.47.64.09,1.35.07,2.03.08l5.54.03.03-4.76Z"/>
    <path class="cls-5" d="M145.18,250.66l2.39,4.2c.16.31.37.6.49.93.1.34,0,.72-.24.98-.15.16-.35.26-.56.3-.21.03-.43.01-.64.02h-1.17s0-1.62,0-1.62l-3.98,4.03,4.03,3.98v-1.63s2.85-.03,2.85-.03c.85-.03,1.58-.18,2.24-.44.67-.28,1.3-.72,1.79-1.3.81-.94,1.2-2.23,1.1-3.41-.06-.6-.21-1.14-.46-1.75-.25-.6-.61-1.2-.95-1.8l-2.74-4.81-4.14,2.36Z"/>
    <path class="cls-5" d="M137.74,250.68l2.44-4.17c.19-.3.33-.62.56-.89.24-.26.62-.37.96-.28.21.05.4.17.54.33.13.17.22.37.34.55l.59,1.01-1.4.82,5.48,1.44,1.44-5.48-1.4.82-1.45-2.46c-.45-.72-.94-1.28-1.5-1.72-.58-.44-1.28-.77-2.02-.9-1.22-.23-2.53.07-3.5.76-.49.35-.89.75-1.29,1.28-.4.51-.73,1.13-1.08,1.72l-2.8,4.78,4.11,2.4Z"/>
  </g>
</svg>